<?xml version="1.0" standalone="no"?>
<!DOCTYPE svg PUBLIC "-//W3C//DTD SVG 20010904//EN"
 "http://www.w3.org/TR/2001/REC-SVG-20010904/DTD/svg10.dtd">
<svg version="1.0" xmlns="http://www.w3.org/2000/svg"
 width="467.000000pt" height="467.000000pt" viewBox="0 0 467.000000 467.000000"
 preserveAspectRatio="xMidYMid meet">
<metadata>
Created by potrace 1.11, written by Peter Selinger 2001-2013
</metadata>
<g transform="translate(0.000000,467.000000) scale(0.100000,-0.100000)"
fill="#000000" stroke="none">
<path d="M110 2365 c0 -1221 3 -1535 13 -1535 6 0 50 12 97 26 112 34 293 81
405 105 50 11 99 22 110 24 27 6 127 27 140 29 41 7 170 67 229 106 63 43 95
71 171 153 81 87 158 276 184 454 18 116 14 539 -5 630 -33 163 -115 279 -241
340 -46 23 -59 33 -50 42 6 6 17 11 24 11 25 0 140 120 171 177 55 105 67 167
67 368 0 161 -3 188 -23 255 -59 190 -177 287 -406 335 -43 10 -179 14 -473
14 l-413 2 0 -1536z m781 1148 c19 -12 46 -41 59 -65 24 -41 25 -50 25 -228 0
-173 -1 -188 -22 -227 -48 -88 -103 -116 -263 -133 -52 -5 -105 -10 -117 -10
l-23 0 0 345 0 344 153 -2 c137 -2 156 -5 188 -24z m14 -1064 c17 -7 42 -27
58 -43 49 -53 59 -109 63 -341 4 -297 -11 -385 -82 -461 -39 -41 -94 -61 -233
-85 -64 -10 -126 -21 -138 -24 l-23 -5 0 479 0 479 68 7 c37 3 76 8 87 9 43 7
172 -3 200 -15z"/>
<path d="M1730 2515 l0 -1385 48 4 c63 7 230 16 319 18 l73 2 2 646 3 645 283
-3 282 -2 0 190 0 190 -285 0 -285 0 0 371 0 370 348 -1 c191 -1 355 -2 365
-1 15 1 17 16 17 171 l0 170 -585 0 -585 0 0 -1385z"/>
<path d="M3110 2505 c0 -767 3 -1394 8 -1393 7 2 150 -11 187 -17 11 -2 54 -9
95 -14 41 -6 92 -14 113 -17 l37 -7 0 513 0 513 67 126 66 125 17 -39 c71
-167 301 -908 374 -1205 36 -142 38 -146 83 -155 21 -5 43 -10 48 -11 17 -5
169 -45 185 -49 8 -2 43 -12 78 -23 34 -11 62 -18 62 -15 0 3 7 0 15 -7 9 -7
18 -11 21 -8 4 4 -68 295 -116 473 -5 17 -16 57 -25 90 -40 147 -152 504 -220
698 -101 292 -115 330 -184 509 -34 87 -61 160 -61 163 0 2 82 157 181 342
100 186 218 406 261 488 44 83 100 187 125 233 l44 82 -225 0 -224 0 -92 -177
c-51 -98 -105 -200 -120 -228 -15 -27 -62 -117 -105 -200 -43 -82 -81 -154
-85 -160 -4 -5 -43 -80 -86 -165 l-79 -155 -3 543 -2 542 -220 0 -220 0 0
-1395z"/>
</g>
</svg>
