<?xml version="1.0" encoding="UTF-8" standalone="no"?>
<!-- Created with Inkscape (http://www.inkscape.org/) -->

<svg
   xmlns:dc="http://purl.org/dc/elements/1.1/"
   xmlns:cc="http://creativecommons.org/ns#"
   xmlns:rdf="http://www.w3.org/1999/02/22-rdf-syntax-ns#"
   xmlns:svg="http://www.w3.org/2000/svg"
   xmlns="http://www.w3.org/2000/svg"
   xmlns:sodipodi="http://sodipodi.sourceforge.net/DTD/sodipodi-0.dtd"
   xmlns:inkscape="http://www.inkscape.org/namespaces/inkscape"
   width="508mm"
   height="26.80687mm"
   viewBox="0 0 508 26.80687"
   version="1.1"
   id="svg5196"
   inkscape:version="0.92.4 (5da689c313, 2019-01-14)"
   sodipodi:docname="wave-top.svg">
  <defs
     id="defs5190" />
  <sodipodi:namedview
     id="base"
     pagecolor="#ffffff"
     bordercolor="#666666"
     borderopacity="1.0"
     inkscape:pageopacity="0.0"
     inkscape:pageshadow="2"
     inkscape:zoom="0.98994949"
     inkscape:cx="597.09491"
     inkscape:cy="61.240269"
     inkscape:document-units="mm"
     inkscape:current-layer="layer1"
     showgrid="false"
     inkscape:window-width="1920"
     inkscape:window-height="1027"
     inkscape:window-x="1912"
     inkscape:window-y="-8"
     inkscape:window-maximized="1" />
  <metadata
     id="metadata5193">
    <rdf:RDF>
      <cc:Work
         rdf:about="">
        <dc:format>image/svg+xml</dc:format>
        <dc:type
           rdf:resource="http://purl.org/dc/dcmitype/StillImage" />
        <dc:title></dc:title>
      </cc:Work>
    </rdf:RDF>
  </metadata>
  <g
     inkscape:label="Layer 1"
     inkscape:groupmode="layer"
     id="layer1"
     transform="translate(93.738095,-266.96581)">
    <path
       style="fill:#d50000;stroke-width:0.26458338;fill-opacity:1"
       d="m -93.738095,280.36907 v -13.40326 l 5.04543,0.17546 c 16.25536,0.56527 27.9742,2.66726 51.181751,9.18039 18.6417,5.23174 26.587169,6.82302 38.36136076,7.68281 4.74425904,0.34644 17.16001824,0.18304 21.43124824,-0.28204 10.86287,-1.18284 18.38081,-2.65249 40.5902,-7.93477 35.83509,-8.52301 51.623535,-10.08297 78.869175,-7.79254 10.06624,0.84622 18.76991,2.0501 41.93645,5.8006 36.17646,5.85671 48.65992,7.18716 69.9823,7.4585 21.2689,0.27066 40.83359,-1.22219 78.72476,-6.00696 31.67586,-3.99992 38.29677,-4.81431 46.02628,-5.66135 13.3921,-1.46757 27.51915,-2.53131 33.66823,-2.53514 l 2.18281,-10e-4 v 13.36145 13.36146 h -254 -253.999995 z"
       id="path5179"
       inkscape:connector-curvature="0" />
  </g>
</svg>
