<?xml version="1.0" encoding="UTF-8" standalone="no"?>
<!-- Created with Inkscape (http://www.inkscape.org/) -->

<svg
   xmlns:dc="http://purl.org/dc/elements/1.1/"
   xmlns:cc="http://creativecommons.org/ns#"
   xmlns:rdf="http://www.w3.org/1999/02/22-rdf-syntax-ns#"
   xmlns:svg="http://www.w3.org/2000/svg"
   xmlns="http://www.w3.org/2000/svg"
   xmlns:sodipodi="http://sodipodi.sourceforge.net/DTD/sodipodi-0.dtd"
   xmlns:inkscape="http://www.inkscape.org/namespaces/inkscape"
   width="508mm"
   height="53.52634mm"
   viewBox="0 0 508 53.52634"
   version="1.1"
   id="svg3741"
   sodipodi:docname="wave-bot.svg"
   inkscape:version="0.92.4 (5da689c313, 2019-01-14)">
  <defs
     id="defs3735" />
  <sodipodi:namedview
     id="base"
     pagecolor="#ffffff"
     bordercolor="#666666"
     borderopacity="1.0"
     inkscape:pageopacity="0.0"
     inkscape:pageshadow="2"
     inkscape:zoom="1.4"
     inkscape:cx="786.384"
     inkscape:cy="103.46099"
     inkscape:document-units="mm"
     inkscape:current-layer="layer1"
     showgrid="false"
     inkscape:window-width="1920"
     inkscape:window-height="1027"
     inkscape:window-x="1912"
     inkscape:window-y="-8"
     inkscape:window-maximized="1" />
  <metadata
     id="metadata3738">
    <rdf:RDF>
      <cc:Work
         rdf:about="">
        <dc:format>image/svg+xml</dc:format>
        <dc:type
           rdf:resource="http://purl.org/dc/dcmitype/StillImage" />
      </cc:Work>
    </rdf:RDF>
  </metadata>
  <g
     inkscape:label="Layer 1"
     inkscape:groupmode="layer"
     id="layer1"
     transform="translate(148.16667,-122.07016)">
    <path
       style="fill:#d50000;stroke-width:0.26458332;fill-opacity:0.94117647"
       d="m -148.16667,148.83333 v -26.76317 l 3.63292,0.18233 c 6.44857,0.32362 11.12592,1.05671 17.97704,2.81758 9.43369,2.42463 18.09779,6.29673 33.555673,14.99646 18.071582,10.17074 25.097671,13.2079 35.328958,15.27166 5.204362,1.04978 8.260834,1.28658 14.677282,1.13714 13.8827,-0.32333 22.98464,-3.31324 50.9323003,-16.73083 16.0592397,-7.70999 25.0427597,-11.34368 34.3623297,-13.89901 16.42045,-4.50233 30.31464,-4.79905 48.98142,-1.04605 10.354437,2.08178 18.755507,4.45166 36.909367,10.41185 31.2478,10.25912 44.73358,13.51296 63.36771,15.28928 5.231,0.49866 18.83577,0.42121 24.73854,-0.14082 17.47052,-1.66345 34.55879,-4.9631 63.30156,-12.22316 6.00274,-1.51622 15.82539,-3.99711 21.82813,-5.51308 27.4162,-6.9239 42.18419,-9.71357 54.90104,-10.3708 l 3.50573,-0.18118 v 26.76248 26.76249 h -254 -254 z"
       id="path3724"
       inkscape:connector-curvature="0" />
  </g>
</svg>
