<?xml version="1.0" encoding="UTF-8" standalone="no"?>

<svg
   xmlns:dc="http://purl.org/dc/elements/1.1/"
   xmlns:cc="http://creativecommons.org/ns#"
   xmlns:rdf="http://www.w3.org/1999/02/22-rdf-syntax-ns#"
   xmlns:svg="http://www.w3.org/2000/svg"
   xmlns="http://www.w3.org/2000/svg"
   xmlns:sodipodi="http://sodipodi.sourceforge.net/DTD/sodipodi-0.dtd"
   xmlns:inkscape="http://www.inkscape.org/namespaces/inkscape"
   width="117.73893mm"
   height="81.243896mm"
   viewBox="0 0 117.73893 81.243896"
   version="1.1"
   id="svg3789"
   inkscape:version="0.92.4 (5da689c313, 2019-01-14)"
   sodipodi:docname="logo_short.svg">
  <defs
     id="defs3783" />
  <sodipodi:namedview
     id="base"
     pagecolor="#ffffff"
     bordercolor="#666666"
     borderopacity="1.0"
     inkscape:pageopacity="0.0"
     inkscape:pageshadow="2"
     inkscape:zoom="0.35"
     inkscape:cx="-366.43119"
     inkscape:cy="-607.22202"
     inkscape:document-units="mm"
     inkscape:current-layer="layer1"
     showgrid="false"
     inkscape:window-width="1920"
     inkscape:window-height="1027"
     inkscape:window-x="1912"
     inkscape:window-y="-8"
     inkscape:window-maximized="1" />
  <metadata
     id="metadata3786">
    <rdf:RDF>
      <cc:Work
         rdf:about="">
        <dc:format>image/svg+xml</dc:format>
        <dc:type
           rdf:resource="http://purl.org/dc/dcmitype/StillImage" />
        <dc:title></dc:title>
      </cc:Work>
    </rdf:RDF>
  </metadata>
  <g
     inkscape:label="Layer 1"
     inkscape:groupmode="layer"
     id="layer1"
     transform="translate(-101.39246,-61.342358)">
    <path
       style="stroke-width:0.26458332"
       d="M 101.39246,101.99169 V 61.342358 l 11.17865,0.111292 c 12.40711,0.123523 13.23715,0.217484 16.8002,1.901782 3.24231,1.532679 5.33906,4.112013 6.29338,7.741831 0.95356,3.626967 0.71448,10.887823 -0.46335,14.071456 -1.04807,2.832921 -2.88441,5.089774 -5.23244,6.430646 -0.58063,0.331575 -1.05661,0.675817 -1.05773,0.764979 -0.001,0.08916 0.76805,0.541229 1.70927,1.004588 3.01627,1.484908 5.01798,4.057121 6.10564,7.845788 0.34887,1.21524 0.47972,3.03228 0.57802,8.02659 0.1832,9.3075 -0.36361,12.85533 -2.71876,17.64021 -2.42415,4.92506 -6.20695,8.22833 -11.89392,10.38618 -0.43656,0.16564 -2.28203,0.6093 -4.10104,0.98589 -4.90711,1.01593 -10.54374,2.44825 -16.73489,4.25249 -0.43955,0.12809 -0.46303,-1.92573 -0.46303,-40.51439 z m 15.30628,22.58942 c 4.33941,-0.72833 5.86884,-1.30386 7.01105,-2.63827 1.67384,-1.95552 1.89205,-3.20369 1.89205,-10.8229 0,-7.12032 -0.12922,-8.12778 -1.25711,-9.80147 -1.13366,-1.682236 -2.01204,-1.97436 -5.88664,-1.957725 -1.89177,0.0081 -3.88607,0.102814 -4.43177,0.210428 l -0.99219,0.195659 v 12.688008 c 0,6.97841 0.0715,12.68801 0.15888,12.68801 0.0874,0 1.66496,-0.25278 3.50573,-0.56174 z m 2.84403,-35.956662 c 1.72787,-0.387223 3.14904,-1.395103 3.99393,-2.832457 0.7236,-1.230996 0.74443,-1.377158 0.8302,-5.825037 0.11932,-6.188144 -0.35066,-7.577567 -2.92736,-8.654181 -0.72661,-0.303596 -1.94026,-0.409503 -4.69274,-0.409503 h -3.71267 v 9.167897 9.167897 l 2.66128,-0.174403 c 1.4637,-0.09592 3.19501,-0.294018 3.84736,-0.440213 z m 97.47261,53.422462 c -0.94589,-0.28489 -3.49065,-0.98501 -5.65503,-1.5558 -2.16438,-0.5708 -3.96797,-1.07275 -4.00799,-1.11544 -0.04,-0.0427 -0.62963,-2.21073 -1.31026,-4.81788 -1.90613,-7.30144 -4.3605,-15.42376 -7.16232,-23.70244 -1.40362,-4.14734 -2.63805,-7.69529 -2.74318,-7.88432 -0.1211,-0.21775 -0.83912,0.86259 -1.95931,2.94802 l -1.76816,3.29173 v 13.65962 13.65962 l -0.59531,-0.12545 c -1.24527,-0.26243 -10.26166,-1.47213 -10.97231,-1.47213 -0.0407,0 -0.074,-16.54969 -0.074,-36.777087 V 61.37827 h 5.82083 5.82084 v 14.340417 c 0,8.071737 0.0999,14.23054 0.22857,14.089062 0.12572,-0.138245 2.2853,-4.180416 4.79909,-8.982604 2.51378,-4.802187 5.83397,-11.141751 7.37819,-14.08792 l 2.80769,-5.356671 5.75469,-0.0011 c 3.16507,-6.35e-4 5.75437,0.08816 5.75398,0.197295 -5.2e-4,0.18269 -2.3798,4.665807 -12.3071,23.190656 l -3.67228,6.852637 0.55987,1.481738 c 6.8136,18.0329 10.27482,28.68369 13.98075,43.02133 1.43232,5.54141 1.61648,6.50033 1.24103,6.46207 -0.10914,-0.0111 -0.97235,-0.25332 -1.91823,-0.53822 z M 144.25496,97.92052 V 61.37827 h 15.47813 15.47812 v 4.497917 4.497917 h -9.65729 -9.65729 v 9.789583 9.789583 h 7.54063 7.54062 v 5.000839 5.00084 l -7.54062,-0.146088 -7.54063,-0.146089 v 17.078128 17.07813 l -2.05052,0.15401 c -1.12779,0.0847 -3.74716,0.22955 -5.82083,0.32187 l -3.77032,0.16786 z"
       id="path3772"
       inkscape:connector-curvature="0" />
  </g>
</svg>
