<?xml version="1.0" encoding="UTF-8" standalone="no"?>

<svg
   xmlns:dc="http://purl.org/dc/elements/1.1/"
   xmlns:cc="http://creativecommons.org/ns#"
   xmlns:rdf="http://www.w3.org/1999/02/22-rdf-syntax-ns#"
   xmlns:svg="http://www.w3.org/2000/svg"
   xmlns="http://www.w3.org/2000/svg"
   xmlns:sodipodi="http://sodipodi.sourceforge.net/DTD/sodipodi-0.dtd"
   xmlns:inkscape="http://www.inkscape.org/namespaces/inkscape"
   width="556.5896mm"
   height="77.72892mm"
   viewBox="0 0 556.5896 77.72892"
   version="1.1"
   id="svg51"
   inkscape:version="0.92.4 (5da689c313, 2019-01-14)"
   sodipodi:docname="logo_full.svg">
  <defs
     id="defs45" />
  <sodipodi:namedview
     id="base"
     pagecolor="#ffffff"
     bordercolor="#666666"
     borderopacity="1.0"
     inkscape:pageopacity="0.0"
     inkscape:pageshadow="2"
     inkscape:zoom="0.35"
     inkscape:cx="1076.1086"
     inkscape:cy="122.60357"
     inkscape:document-units="mm"
     inkscape:current-layer="layer1"
     showgrid="false"
     inkscape:window-width="1920"
     inkscape:window-height="1027"
     inkscape:window-x="1912"
     inkscape:window-y="-8"
     inkscape:window-maximized="1" />
  <metadata
     id="metadata48">
    <rdf:RDF>
      <cc:Work
         rdf:about="">
        <dc:format>image/svg+xml</dc:format>
        <dc:type
           rdf:resource="http://purl.org/dc/dcmitype/StillImage" />
        <dc:title></dc:title>
      </cc:Work>
    </rdf:RDF>
  </metadata>
  <g
     inkscape:label="Layer 1"
     inkscape:groupmode="layer"
     id="layer1"
     transform="translate(172.46146,-109.96887)">
    <path
       style="stroke-width:0.26458332"
       d="m -172.46146,149.15292 v -38.54487 l 11.17864,0.10594 c 12.28858,0.11647 12.98475,0.19461 16.19019,1.81726 4.45725,2.25634 6.58932,5.72964 7.30961,11.90787 0.36925,3.16725 0.17528,8.41394 -0.4135,11.1848 -0.77845,3.66351 -2.83738,6.8135 -5.5902,8.55257 -0.63642,0.40206 -1.15734,0.79551 -1.1576,0.87433 -2.6e-4,0.0788 0.6246,0.45018 1.38859,0.82522 3.07503,1.50955 5.34231,4.46631 6.45975,8.42417 0.41851,1.48233 0.48556,2.7427 0.48556,9.12812 0,8.3008 -0.15668,9.37077 -1.91786,13.09688 -1.13547,2.40232 -4.13632,5.54872 -6.50122,6.81657 -3.51089,1.88221 -5.51464,2.28105 -16.31946,3.24834 -4.87495,0.43643 -9.36956,0.86419 -9.98802,0.95059 l -1.12448,0.15708 z m 18.0562,25.77563 c 3.24073,-0.37988 4.8678,-1.46893 5.68308,-3.80388 0.39995,-1.14543 0.47009,-2.29389 0.47009,-7.69634 0,-5.44777 -0.0681,-6.54523 -0.47931,-7.72409 -1.17211,-3.36021 -3.10739,-4.18564 -9.06495,-3.86636 l -3.02344,0.16203 v 11.76102 11.76102 l 2.18281,-0.17661 c 1.20054,-0.0971 3.10482,-0.28469 4.23172,-0.41679 z m -1.70056,-33.97508 c 3.4931,-0.21139 5.29497,-1.42742 6.24011,-4.21125 0.60322,-1.77674 0.60152,-9.79066 -0.002,-11.82465 -0.86244,-2.90417 -2.54998,-3.69028 -7.92189,-3.69028 h -3.02968 v 10.0417 10.0417 l 1.25677,-0.11203 c 0.69122,-0.0616 2.24697,-0.17195 3.4572,-0.24519 z m 534.10998,46.13111 c -2.61937,-0.26769 -4.99337,-0.52063 -5.27555,-0.5621 -1.0691,-0.1571 -1.256,-1.94482 -1.46008,-13.96602 -0.17756,-10.45886 -0.23026,-11.36528 -0.754,-12.96871 -0.63172,-1.93401 -1.90633,-3.4 -3.5523,-4.0857 -0.89337,-0.37217 -4.78933,-0.92114 -6.619,-0.93267 l -0.72761,-0.005 v 15.34583 15.34584 l -0.59531,0.004 c -0.32742,0.002 -2.9468,-0.19713 -5.82083,-0.44246 l -5.22552,-0.44607 V 147.4876 110.60366 l 11.17864,0.10525 c 12.37015,0.11647 12.5956,0.14317 16.24402,1.92407 3.12152,1.52372 5.38091,4.38692 6.53894,8.28649 1.07563,3.62203 1.25931,14.63564 0.3158,18.93778 -0.83235,3.79547 -3.14764,7.22556 -5.84194,8.65489 -0.65085,0.34528 -1.18338,0.68772 -1.18338,0.76098 0,0.0733 0.53417,0.41657 1.18703,0.76292 2.53582,1.34525 4.67301,4.4918 5.74585,8.45952 0.49638,1.83581 0.56486,3.09618 0.74215,13.66402 0.17312,10.31785 0.25398,11.85979 0.71118,13.5599 l 0.51588,1.91822 -0.68075,-0.0332 c -0.37438,-0.0183 -2.82384,-0.25223 -5.44322,-0.51991 z m -10.6476,-43.39952 c 1.43156,-0.36604 2.74392,-1.79698 3.25247,-3.54634 0.60667,-2.08683 0.44895,-14.33573 -0.20261,-15.73643 -1.15515,-2.48324 -2.29566,-2.99109 -7.02048,-3.1261 l -3.77032,-0.10774 v 11.39537 11.39538 l 2.05052,0.0975 c 2.37575,0.11293 4.28244,-0.0116 5.69042,-0.37161 z m -33.27323,39.57084 c -2.18281,-0.19085 -8.31453,-0.65783 -13.62604,-1.03772 -5.31151,-0.37989 -10.04424,-0.75005 -10.51719,-0.82258 l -0.85989,-0.13187 v -35.30988 -35.30989 h 15.875 15.875 v 5.1758 5.1758 l -10.05417,-0.18933 -10.05417,-0.18934 v 9.9302 9.9302 l 5.49011,0.16847 c 3.01955,0.0927 6.65096,0.2391 8.06979,0.32542 l 2.57969,0.15694 v 4.98293 c 0,2.74061 -0.10197,5.04595 -0.22659,5.12298 -0.19982,0.12348 -6.20393,-0.0953 -13.4656,-0.49058 l -2.4474,-0.13323 v 10.57624 c 0,5.81694 0.0298,10.57985 0.0661,10.58424 0.48548,0.0587 19.01597,1.30754 19.44687,1.31064 l 0.59532,0.004 v 5.29167 5.29167 l -1.38907,-0.033 c -0.76398,-0.0182 -3.175,-0.18918 -5.35781,-0.38004 z m -453.12322,-0.22985 c -2.57739,-0.54175 -5.38551,-2.06153 -7.16009,-3.8751 -1.69022,-1.72736 -2.84259,-3.90076 -3.73557,-7.04536 -0.5843,-2.05761 -0.58574,-2.11914 -0.58574,-25.08142 0,-22.93123 0.002,-23.02656 0.5831,-25.0711 1.75538,-6.17847 5.43795,-9.87791 11.45173,-11.50421 2.41256,-0.65243 8.94841,-0.63644 11.37708,0.0278 4.70276,1.28625 8.061514,3.87233 9.89228,7.61657 1.965494,4.01978 1.88168,2.78414 1.88168,27.74028 v 22.35729 l -0.609378,2.10475 c -1.863334,6.4358 -6.213682,10.64564 -12.716742,12.30602 -2.81607,0.71901 -7.97352,0.92994 -10.37835,0.42445 z m 8.93045,-10.95324 c 1.29055,-0.65866 1.77463,-1.20143 2.52694,-2.83331 l 0.60541,-1.31325 v -21.69583 c 0,-22.97626 0.0113,-22.75362 -1.2307,-24.33252 -1.28179,-1.62954 -4.65997,-2.33723 -7.15236,-1.49833 -1.43678,0.48359 -2.74969,2.0743 -3.11771,3.77738 -0.22159,1.02547 -0.28321,7.43583 -0.22344,23.24409 l 0.0825,21.82813 0.64537,1.12684 c 0.66575,1.16245 1.45098,1.81972 2.63906,2.20901 1.09142,0.35761 4.09813,0.0629 5.22489,-0.51221 z m 22.229578,8.51247 c -0.09873,-0.0987 -0.179517,-15.87592 -0.179517,-35.06042 v -34.8809 h 7.397129 7.39713 l 0.525397,1.78594 c 0.288971,0.98226 2.856811,9.88218 5.706331,19.7776 2.84951,9.89542 5.28897,18.22979 5.42102,18.52083 0.14643,0.32273 0.24708,-7.39292 0.258,-19.7776 l 0.01791,-20.30677 h 5.15937 5.15938 v 33.86667 c 0,18.62666 -0.0298,33.87235 -0.0661,33.8793 -0.88761,0.16953 -11.75432,0.68198 -11.86269,0.55942 -0.0852,-0.0964 -0.40327,-1.06815 -0.70685,-2.15956 -2.17712,-7.82668 -13.392669,-46.51358 -13.576694,-46.83125 -0.131366,-0.22676 -0.233358,10.39195 -0.237953,24.77421 l -0.008,25.17107 -1.389063,0.15307 c -0.763984,0.0842 -2.69875,0.22144 -4.299479,0.30501 -1.600729,0.0836 -3.276118,0.2084 -3.723087,0.27742 -0.446966,0.069 -0.89345,0.0447 -0.992188,-0.054 z m 371.560072,-0.89644 c -3.85631,-0.26329 -7.4294,-0.48751 -7.9402,-0.49826 l -0.92874,-0.0196 -2.85856,-17.39635 c -1.57221,-9.568 -4.14047,-24.98659 -5.70725,-34.26354 l -2.84869,-16.86718 h 5.88735 5.88738 l 0.14666,0.7276 c 0.16798,0.83356 4.32993,27.31425 6.91197,43.97811 0.95755,6.17975 1.78028,11.27518 1.82825,11.32316 0.048,0.048 0.1697,-0.48381 0.27051,-1.18175 0.45944,-3.18158 8.36485,-53.72343 8.48569,-54.25181 0.13559,-0.59295 0.15705,-0.59531 5.42276,-0.59531 4.56396,0 5.28662,0.0552 5.28662,0.40395 0,0.22217 -1.90506,11.97959 -4.23347,26.1276 -2.32841,14.14801 -4.86423,29.59319 -5.6352,34.32262 l -1.40171,8.59895 -0.78097,0.0352 c -0.42953,0.0194 -3.9361,-0.18018 -7.7924,-0.44347 z m -28.31042,-1.60048 c -1.96453,-0.11623 -7.50094,-0.39711 -12.30313,-0.62418 -4.80218,-0.22708 -10.24929,-0.48849 -12.10468,-0.58093 l -3.37344,-0.16807 v -33.03561 -33.03561 h 15.875 15.875 v 4.7925 4.7925 l -10.05417,-0.19575 -10.05416,-0.19575 v 9.29387 9.29388 l 2.57968,0.0365 c 1.41883,0.02 5.02047,0.10935 8.00365,0.19844 l 5.42396,0.16197 0.0724,4.73558 0.0724,4.73558 -8.07606,-0.19125 -8.07606,-0.19125 v 9.78334 9.78333 l 1.52135,0.15215 c 0.83675,0.0837 5.36112,0.29379 10.05417,0.46691 l 8.53284,0.31475 v 4.98303 c 0,2.74067 -0.0893,4.96557 -0.19844,4.94423 -0.10914,-0.0214 -1.80578,-0.1339 -3.77031,-0.25013 z M -33.819792,148.7691 v -28.86951 l -6.08542,0.17678 -6.08542,0.17679 v -4.8046 -4.8046 h 17.99167 17.99167 v 4.63021 4.63021 h -6.08542 -6.08542 v 28.54525 28.54525 l -3.77031,0.16785 c -2.07367,0.0923 -4.69305,0.23717 -5.82083,0.32187 l -2.05052,0.15402 z m 248.517382,27.49896 c -2.36059,-0.0929 -4.36896,-0.24583 -4.46307,-0.33994 -0.0941,-0.0941 -1.74622,-3.89756 -3.67136,-8.45211 -5.25886,-12.44161 -7.62926,-17.9478 -7.69437,-17.87317 -0.0322,0.0369 -0.84627,1.3458 -1.80901,2.90857 l -1.75041,2.84141 v 10.05703 10.05703 h -3.00154 c -1.65086,0 -4.27024,-0.0776 -5.82083,-0.1725 l -2.81929,-0.1725 v -32.23896 -32.23896 h 5.8185 5.81848 l 0.0685,13.95677 0.0685,13.95677 7.51579,-13.95677 7.51575,-13.95677 h 5.77956 c 3.17873,0 5.77953,0.0601 5.77953,0.1336 0,0.1471 -0.94491,1.84412 -9.8244,17.64435 -3.32783,5.92158 -6.0506,10.88751 -6.0506,11.0354 0,0.1479 1.62481,3.93501 3.61072,8.4158 4.5716,10.31504 12.26428,28.15123 12.26428,28.43594 0,0.22901 -0.54885,0.22595 -7.3347,-0.041 z M -4.9802117,143.49242 v -32.84846 h 15.8749997 15.875 v 4.49792 4.49791 H 16.715618 6.6614583 v 9.13772 9.13773 l 8.0762197,-0.18385 8.07622,-0.18385 -0.0726,4.60602 -0.0726,4.60602 -6.21771,0.16314 c -3.41974,0.0897 -7.0213797,0.17902 -8.0036497,0.19843 l -1.78593,0.0353 v 9.68876 9.68876 l 2.44739,-0.15761 c 1.3460697,-0.0867 5.8704497,-0.23453 10.0541697,-0.32855 l 7.60677,-0.17095 v 4.63725 4.63726 l -2.71198,0.151 c -1.49159,0.0831 -6.9387,0.27586 -12.10469,0.42847 -5.1659897,0.15261 -11.08934967,0.3523 -13.1630197,0.44376 l -3.77031,0.16628 z m 38.8937497,-0.70159 v -32.14687 h 15.48452 15.48453 l -0.0726,4.43177 -0.0725,4.43177 -9.59115,0.0695 -9.59114,0.0694 v 9.5217 9.5217 h 7.54062 7.54063 v 4.49792 4.49792 h -2.33871 c -1.28628,0 -4.67956,0.0784 -7.54062,0.17421 l -5.20192,0.17422 v 13.45183 13.45182 h -5.82084 -5.82083 z m 131.299482,31.95548 -0.8599,-0.10671 v -23.04609 c 0,-12.67534 -0.0663,-22.97975 -0.1474,-22.89869 -0.1642,0.16422 -7.78983,44.75932 -7.78999,45.55644 -1.1e-4,0.48033 -0.17846,0.49602 -3.77042,0.3317 -2.07367,-0.0949 -4.60375,-0.17335 -5.6224,-0.17441 l -1.85208,-0.002 -0.89006,-4.95998 c -1.78892,-9.96928 -7.48009,-40.1413 -7.59285,-40.25407 -0.0638,-0.0638 -0.11605,10.08364 -0.11605,22.54992 v 22.66602 h -2.73748 c -1.50561,0 -3.82733,-0.0774 -5.15938,-0.17191 l -2.42189,-0.17191 v -31.71038 -31.71038 h 8.17341 8.1734 l 0.14877,0.59531 c 0.0818,0.32742 1.94009,10.17985 4.12943,21.89427 2.18933,11.71443 4.05681,21.59662 4.14992,21.96042 0.21029,0.8216 2e-5,1.94424 4.1874,-22.35729 1.83044,-10.62302 3.45307,-19.93966 3.60582,-20.70365 l 0.2777,-1.38906 h 8.18333 8.18332 v 32.14687 32.14688 l -4.69635,-0.0423 c -2.583,-0.0233 -5.08331,-0.0904 -5.55625,-0.14906 z m -94.786982,-32.2149 v -31.88745 h 5.8219 5.8219 l -0.0672,31.81615 -0.0672,31.81614 -5.75469,0.0713 -5.75469,0.0713 z m 20.10833,-0.13745 v -31.75 h 5.82084 5.820832 v 27.11649 27.11649 l 9.59115,0.0695 9.59114,0.0694 0.0724,4.56406 0.0724,4.56407 H 106.01874 90.534368 Z"
       id="path20"
       inkscape:connector-curvature="0" />
  </g>
</svg>
